<svg width="496" height="358" viewBox="0 0 496 358" fill="none" xmlns="http://www.w3.org/2000/svg">
<path d="M41.72 38.72H87.32C87.24 51.04 84.96 60.8 80.48 68C76.08 75.2 70.68 80.24 64.28 83.12C57.96 85.92 51.4 87.32 44.6 87.32C36.44 87.32 28.96 85.48 22.16 81.8C15.36 78.12 9.96 73 5.96 66.44C2.04 59.8 0.0800002 52.32 0.0800002 44C0.0800002 36.08 1.84 28.84 5.36 22.28C8.96 15.64 14.04 10.4 20.6 6.55999C27.16 2.64 34.76 0.679997 43.4 0.679997C50.52 0.679997 57.56 2 64.52 4.64C71.48 7.2 76.96 11.12 80.96 16.4L69.68 28.4C66.4 24.88 62.52 22.04 58.04 19.88C53.64 17.72 49.2 16.64 44.72 16.64C40 16.64 35.72 17.8 31.88 20.12C28.04 22.36 25 25.56 22.76 29.72C20.6 33.88 19.52 38.68 19.52 44.12C19.52 49.64 20.68 54.48 23 58.64C25.32 62.72 28.48 65.88 32.48 68.12C36.48 70.28 40.96 71.36 45.92 71.36C50.96 71.36 55.52 70.08 59.6 67.52C63.76 64.96 66.68 60.56 68.36 54.32H41.72V38.72ZM95.2363 43.88C95.2363 35.72 97.0763 28.4 100.756 21.92C104.436 15.36 109.636 10.2 116.356 6.43999C123.156 2.68 131.036 0.799995 139.996 0.799995C148.796 0.799995 156.556 2.64 163.276 6.32C170.076 9.92 175.356 15 179.116 21.56C182.876 28.04 184.756 35.52 184.756 44C184.756 52.08 182.916 59.4 179.236 65.96C175.556 72.44 170.316 77.56 163.516 81.32C156.716 85.08 148.876 86.96 139.996 86.96C131.036 86.96 123.156 85.16 116.356 81.56C109.636 77.96 104.436 72.92 100.756 66.44C97.0763 59.88 95.2363 52.36 95.2363 43.88ZM165.676 43.88C165.676 38.28 164.596 33.44 162.436 29.36C160.276 25.2 157.236 22 153.316 19.76C149.396 17.52 144.956 16.4 139.996 16.4C135.036 16.4 130.596 17.52 126.676 19.76C122.836 21.92 119.796 25.08 117.556 29.24C115.396 33.4 114.316 38.28 114.316 43.88C114.316 49.48 115.396 54.36 117.556 58.52C119.716 62.6 122.716 65.76 126.556 68C130.476 70.24 134.956 71.36 139.996 71.36C144.876 71.36 149.276 70.28 153.196 68.12C157.116 65.88 160.156 62.68 162.316 58.52C164.556 54.36 165.676 49.48 165.676 43.88ZM271.691 43.4C271.691 52.84 269.651 60.76 265.571 67.16C261.491 73.48 255.971 78.2 249.011 81.32C242.051 84.44 234.211 86 225.491 86H197.891V1.99999H227.171C236.611 1.99999 244.651 3.72 251.291 7.16C258.011 10.52 263.091 15.32 266.531 21.56C269.971 27.8 271.691 35.08 271.691 43.4ZM223.691 70.4C232.811 70.4 239.851 68.16 244.811 63.68C249.771 59.2 252.251 52.52 252.251 43.64C252.251 35 249.731 28.52 244.691 24.2C239.651 19.8 232.811 17.6 224.171 17.6H216.371V70.4H223.691ZM23.48 137V205.28H50.84V221H5V137H23.48ZM62.6563 137H81.1363V221H62.6563V137ZM163.304 139.4L138.704 174.32L170.984 218.6V221H149.504L123.464 184.76H117.464V221H98.9844V137H117.464V168.92H122.744L143.504 137H163.304V139.4ZM229.744 221H180.664V137H228.544V152.6H199.144V169.28H223.264V184.52H199.144V205.4H229.744V221ZM0.8 342.32L13.4 330.32C15.16 333.36 17.4 335.88 20.12 337.88C22.92 339.88 26.28 340.88 30.2 340.88C33.64 340.88 36.36 340.08 38.36 338.48C40.36 336.88 41.36 334.72 41.36 332C41.36 329.84 40.72 328 39.44 326.48C38.16 324.96 36.56 323.72 34.64 322.76C32.72 321.72 30 320.48 26.48 319.04C21.84 317.2 18.04 315.44 15.08 313.76C12.12 312 9.56 309.6 7.4 306.56C5.32 303.44 4.28 299.48 4.28 294.68C4.28 287.16 6.84 281.32 11.96 277.16C17.08 272.92 23.8 270.8 32.12 270.8C38.76 270.8 44.12 272.04 48.2 274.52C52.36 277 55.48 279.96 57.56 283.4L45.68 294.32C42.08 289.36 37.6 286.88 32.24 286.88C29.44 286.88 27.2 287.48 25.52 288.68C23.92 289.88 23.12 291.6 23.12 293.84C23.12 296.56 24.24 298.64 26.48 300.08C28.72 301.52 32.24 303.08 37.04 304.76C41.92 306.52 45.92 308.28 49.04 310.04C52.24 311.72 54.96 314.2 57.2 317.48C59.52 320.76 60.68 325 60.68 330.2C60.68 338.68 57.84 345.28 52.16 350C46.48 354.64 38.96 356.96 29.6 356.96C22.24 356.96 16.2 355.6 11.48 352.88C6.84 350.08 3.28 346.56 0.8 342.32ZM104.866 356H86.3863V287.6H67.1863V272H123.946V287.6H104.866V356ZM134.355 322.88V272H152.835V321.2C152.835 333.92 157.995 340.28 168.315 340.28C173.275 340.28 177.115 338.76 179.835 335.72C182.635 332.6 184.035 328.12 184.035 322.28V272H201.675V322.16C201.675 333.28 198.755 341.92 192.915 348.08C187.075 354.16 178.995 357.2 168.675 357.2C157.475 357.2 148.955 354.2 143.115 348.2C137.275 342.2 134.355 333.76 134.355 322.88ZM292.667 313.4C292.667 322.84 290.627 330.76 286.547 337.16C282.467 343.48 276.947 348.2 269.987 351.32C263.027 354.44 255.187 356 246.467 356H218.867V272H248.147C257.587 272 265.627 273.72 272.267 277.16C278.987 280.52 284.067 285.32 287.507 291.56C290.947 297.8 292.667 305.08 292.667 313.4ZM244.667 340.4C253.787 340.4 260.827 338.16 265.787 333.68C270.747 329.2 273.227 322.52 273.227 313.64C273.227 305 270.707 298.52 265.667 294.2C260.627 289.8 253.787 287.6 245.147 287.6H237.347V340.4H244.667ZM305.703 272H324.183V356H305.703V272ZM337.111 313.88C337.111 305.72 338.951 298.4 342.631 291.92C346.311 285.36 351.511 280.2 358.231 276.44C365.031 272.68 372.911 270.8 381.871 270.8C390.671 270.8 398.431 272.64 405.151 276.32C411.951 279.92 417.231 285 420.991 291.56C424.751 298.04 426.631 305.52 426.631 314C426.631 322.08 424.791 329.4 421.111 335.96C417.431 342.44 412.191 347.56 405.391 351.32C398.591 355.08 390.751 356.96 381.871 356.96C372.911 356.96 365.031 355.16 358.231 351.56C351.511 347.96 346.311 342.92 342.631 336.44C338.951 329.88 337.111 322.36 337.111 313.88ZM407.551 313.88C407.551 308.28 406.471 303.44 404.311 299.36C402.151 295.2 399.111 292 395.191 289.76C391.271 287.52 386.831 286.4 381.871 286.4C376.911 286.4 372.471 287.52 368.551 289.76C364.711 291.92 361.671 295.08 359.431 299.24C357.271 303.4 356.191 308.28 356.191 313.88C356.191 319.48 357.271 324.36 359.431 328.52C361.591 332.6 364.591 335.76 368.431 338C372.351 340.24 376.831 341.36 381.871 341.36C386.751 341.36 391.151 340.28 395.071 338.12C398.991 335.88 402.031 332.68 404.191 328.52C406.431 324.36 407.551 319.48 407.551 313.88ZM435.566 342.32L448.166 330.32C449.926 333.36 452.166 335.88 454.886 337.88C457.686 339.88 461.046 340.88 464.966 340.88C468.406 340.88 471.126 340.08 473.126 338.48C475.126 336.88 476.126 334.72 476.126 332C476.126 329.84 475.486 328 474.206 326.48C472.926 324.96 471.326 323.72 469.406 322.76C467.486 321.72 464.766 320.48 461.246 319.04C456.606 317.2 452.806 315.44 449.846 313.76C446.886 312 444.326 309.6 442.166 306.56C440.086 303.44 439.046 299.48 439.046 294.68C439.046 287.16 441.606 281.32 446.726 277.16C451.846 272.92 458.566 270.8 466.886 270.8C473.526 270.8 478.886 272.04 482.966 274.52C487.126 277 490.246 279.96 492.326 283.4L480.446 294.32C476.846 289.36 472.366 286.88 467.006 286.88C464.206 286.88 461.966 287.48 460.286 288.68C458.686 289.88 457.886 291.6 457.886 293.84C457.886 296.56 459.006 298.64 461.246 300.08C463.486 301.52 467.006 303.08 471.806 304.76C476.686 306.52 480.686 308.28 483.806 310.04C487.006 311.72 489.726 314.2 491.966 317.48C494.286 320.76 495.446 325 495.446 330.2C495.446 338.68 492.606 345.28 486.926 350C481.246 354.64 473.726 356.96 464.366 356.96C457.006 356.96 450.966 355.6 446.246 352.88C441.606 350.08 438.046 346.56 435.566 342.32Z" fill="white"/>
</svg>
